<svg xmlns="http://www.w3.org/2000/svg" width="140" height="48" viewBox="0 0 140 48">
    <g fill="none" fill-rule="nonzero">
        <path fill="#F6AA00" d="M74.26 7.829l-1.423 8.157h7.592l.902-5.122c.285-1.755 1.803-3.035 3.606-3.035h2.183l-4.128 23.284H64.865l3.607-20.439c.284-1.66 1.708-2.845 3.416-2.845h2.373zm-3.32 18.969h7.591l1.14-6.544h-7.593l-1.139 6.544zm29.371-4.173h-5.267l-3.179 18.068H86.55l5.505-31.3c.285-1.659 1.755-2.892 3.416-2.892h2.373l-2.088 11.76h5.314l-.759 4.364zM124.227 24.285c-3.607.9-7.023.426-11.294.426h-8.92l2.562-14.558c.284-1.518 1.613-2.656 3.132-2.656h14.662l-.76 4.315h-12.052l-1.518 8.536h3.653c3.702 0 7.64.522 11.294-.332l-.76 4.269zm7.022 20.344c-2.515.616-5.172.427-7.877.427h-15.848l1.898-10.86h15.848l.428-2.276h-15.991l.38-2.04a2.644 2.644 0 0 1 2.609-2.181h19.028l-1.898 10.623h-15.849l-.427 2.513h10.582c2.61 0 5.646.237 7.829-.284l-.712 4.078zm7.498-26.652h-5.268l-1.423 8.015h-5.315l3.749-20.25a3.401 3.401 0 0 1 3.322-2.798h2.467l-2.04 10.67h5.267l-.76 4.363z"/>
        <path fill="#F2AC1F" d="M13.998 1.047c-1.993 0-3.701 1.423-4.08 3.415l-.475 2.75h.284c1.709 0 10.25.237 13.24 3.462H4.65c.712 0 1.898.048 4.128.332 3.085.38 6.691 1.233 8.4 3.13H.427c1.233 0 3.843.142 7.544 1.423L6.88 21.866H20.5l1.328-7.777h10.535c3.084 0 5.172 2.37 4.697 5.311-.427 2.466-2.562 4.553-5.077 5.122 2.325.569 3.796 2.655 3.369 5.121-.475 2.94-2.183 5.312-6.5 5.312H18.268l1.518-8.916H6.169L2.515 46.858H27.9c15.28 0 21.21-8.015 23.583-22.905C53.857 9.014 44.51 1.047 32.03 1.047H13.998z"/>
    </g>
</svg>
