<svg xmlns="http://www.w3.org/2000/svg" width="198" height="110"><g fill="#1e88e5" fill-rule="evenodd"><path fill-rule="nonzero" d="M50.053 30C35.233 30 25 42 25 55c0 6.421 1.477 11.263 4.536 14.421l.105.105c.317.263.739.474 1.213.474 1.003 0 1.794-.79 1.794-1.79 0-.473-.211-.894-.528-1.21l-.052-.053c-2.321-2.42-3.534-6.368-3.534-11.947 0-11.21 8.808-21.474 21.519-21.474 12.71 0 21.519 10.263 21.519 21.474 0 8.947-5.591 17.263-14.346 20.263-2.215.737-4.589 1.21-7.173 1.21-3.376 0-5.696-.473-7.384-1.578-2.32-1.421-3.85-3.948-3.85-6.842 0-1.264.263-2.421.79-3.474v-.053h.212c1.793 0 3.27-1.052 3.955-2.579.739.685 1.74 1.053 2.848 1.053 1.794 0 3.27-1.053 3.956-2.579.739.684 1.74 1.053 2.848 1.053 1.424 0 2.69-.685 3.481-1.79a4.16 4.16 0 00.844-2.526V46.21c0-2.737.739-3.79 2.374-3.79 1.582 0 2.268 1 2.162 3.737v17.158l-3.586-.948a4.45 4.45 0 00-1.425-.21 4.61 4.61 0 00-2.9 1l-.053.053-.053.052a3.02 3.02 0 00-.58.58c-.053.104-.158.157-.211.262a4.64 4.64 0 00-.844 2.684c0 .527.106 1.053.264 1.527.21.684.527 1.263 1.055 1.684a3.53 3.53 0 001.53.79c.685.157 1.37-.211 1.529-.895.158-.684-.211-1.369-.897-1.527-1.266-.315-1.002-1.526-.738-2.42.263-.895 1.371-1.474 2.637-1.159l1.582.422 2.215.578 1.319.369c.053 0 .158.053.21.053h.16c.685 0 1.265-.58 1.265-1.264V46.211c.158-3.948-1.424-6.316-4.694-6.316-3.217 0-4.905 2.316-4.905 6.316v2.052c-.528-.263-1.16-.368-1.793-.368-1.794 0-3.27 1.052-3.956 2.579-.739-.685-1.74-1.053-2.848-1.053-1.794 0-3.27 1.053-3.956 2.579-.738-.684-1.74-1.053-2.848-1.053-2.373 0-4.325 1.948-4.325 4.316v5c0 1.053.37 2 1.002 2.737-.158.368-.264.737-.422 1.053a11.898 11.898 0 00-.58 3.631c0 2.474.738 4.842 2.057 6.737 1.688 2.474 4.22 4.316 7.226 5.053.527.105 1.107.21 1.74.315 1.055.106 2.215.211 3.481.211C64.767 80 75 68 75 55S64.873 30 50.053 30zm1.582 26.263v-4.052c0-1 .791-1.79 1.793-1.79 1.002 0 1.794.79 1.794 1.79v5.052c0 .263-.053.526-.211.79-.264.579-.897 1-1.583 1a1.777 1.777 0 01-1.793-1.79v-1zm-6.804-.316v-2.21c0-1 .791-1.79 1.793-1.79 1.003 0 1.794.79 1.794 1.79v5.052c0 1-.791 1.79-1.794 1.79a1.777 1.777 0 01-1.793-1.79v-2.842zm-6.75 4.421v-5.105c0-1 .79-1.79 1.792-1.79 1.003 0 1.794.79 1.794 1.79v5c0 1-.791 1.79-1.794 1.79-1.002 0-1.793-.737-1.793-1.685z"></path><path d="M94.49 40.037c1.242.073 2.368.261 3.378.566 1.01.304 1.861.737 2.555 1.297a5.375 5.375 0 011.57 2.046c.352.804.48 1.718.383 2.741-.17 1.754-.937 3.106-2.3 4.056-1.363.95-3.212 1.425-5.549 1.425-.632 0-1.235-.006-1.806-.018a19.53 19.53 0 01-1.698-.11 9.773 9.773 0 01-3.285-.932c-1.071-.56-1.795-1.297-2.172-2.21A7.263 7.263 0 0185 46.102c0-2.095.821-3.63 2.464-4.604 1.643-.974 3.985-1.461 7.027-1.461zm15.405 25.688c.025 0 .11.024.256.073.146.049.31.128.493.237.182.11.353.256.51.439.159.183.262.396.311.64.146.925 0 1.644-.438 2.155-.268.341-.56.548-.876.621a7.26 7.26 0 01-.511.11H90.585c-.925 0-1.655-.152-2.19-.457-.536-.304-.803-.737-.803-1.297v-3.252a9.276 9.276 0 010-1.644c.048-.512.243-.926.584-1.243.34-.317.766-.475 1.277-.475.122 0 .286.006.493.018.207.013.371.043.493.092.316.097.56.243.73.438.17.195.304.42.402.676.097.256.158.524.182.804l.073.822c0 .195.012.396.037.603.024.207.06.396.11.567.048.024.273.054.675.091.401.037 1.028.055 1.88.055.73 0 1.38-.012 1.952-.037.572-.024.87-.036.895-.036h12.52zm.877-6.98a69.88 69.88 0 00-.201 1.28 8.41 8.41 0 01-.128.675 6.185 6.185 0 01-.146.53c-.122.293-.316.56-.584.804-.268.17-.554.268-.858.292a3.27 3.27 0 01-.858-.036 4.824 4.824 0 00-.456-.11.731.731 0 01-.383-.219c-.657-.658-.95-1.583-.876-2.777l.073-7.089c-.876 0-1.704-.067-2.483-.201-.778-.134-1.314-.408-1.606-.822a1.43 1.43 0 01-.255-.84c0-.317.073-.628.219-.932.146-.305.34-.56.584-.768a1.4 1.4 0 01.803-.347c.292 0 .681-.012 1.168-.036.487-.025 1.01-.037 1.57-.037V43.18c0-.341.018-.676.054-1.005a4.52 4.52 0 01.201-.932 2.08 2.08 0 01.365-.694c.268-.268.536-.426.803-.475.268-.049.548-.073.84-.073.852 0 1.436.414 1.752 1.242.195.536.304 1.072.329 1.608l.073 1.645v.182c.048 1.852.06 3.685.036 5.5a396.697 396.697 0 00-.036 5.316v3.252zm-14.09-.73c.023 1.096-.031 2.034-.165 2.813-.134.78-.48 1.34-1.04 1.681a2.43 2.43 0 01-1.004.31 2.995 2.995 0 01-1.095-.09 2.476 2.476 0 01-.913-.457c-.256-.207-.395-.457-.42-.75-.048-.316-.079-.791-.091-1.425a111.23 111.23 0 01-.018-2.119c-.609-.024-1.339-.055-2.19-.091a52.822 52.822 0 00-2.227-.055 29.757 29.757 0 01-1.022-.165c-.341-.06-.657-.25-.95-.566-.291-.292-.437-.719-.437-1.279 0-.511.146-.938.438-1.279a1.58 1.58 0 01.638-.438c.256-.098.505-.17.749-.22a3.31 3.31 0 01.639-.073h12.794a7.866 7.866 0 011.515 0 2.2 2.2 0 011.332.585c.463.463.694.987.694 1.571 0 .366-.097.7-.292 1.005a1.546 1.546 0 01-.803.64 4.564 4.564 0 01-1.442.365 10.19 10.19 0 01-1.479.037h-3.212zm.948-11.182c.122-.706-.018-1.297-.42-1.772-.401-.475-.991-.822-1.77-1.042a7.957 7.957 0 00-1.734-.274 7.224 7.224 0 00-1.862.128 4.133 4.133 0 00-1.551.64 1.886 1.886 0 00-.803 1.26c-.146.731.018 1.365.493 1.9.474.537 1.417.865 2.829.987.486.049.985.073 1.496.073a6.08 6.08 0 001.442-.164c.45-.11.84-.28 1.168-.512.329-.231.554-.566.676-1.005l.036-.219zm42.589 8.806c.316.22.541.494.675.823.134.329.189.663.165 1.005a2.16 2.16 0 01-.31.968 1.86 1.86 0 01-.786.712 5.305 5.305 0 01-1.679.585c-.584.097-1.156.146-1.715.146h-13.36c-.39 0-.816-.012-1.278-.036a8.195 8.195 0 01-1.35-.183 5.956 5.956 0 01-1.242-.42 2.867 2.867 0 01-.986-.75 2.908 2.908 0 01-.547-1.077 6.75 6.75 0 01-.237-1.28 13.129 13.129 0 01-.055-1.095V44.458a6.855 6.855 0 01.146-1.334 2.4 2.4 0 01.182-.566c.22-.341.438-.597.657-.768.22-.17.511-.28.876-.328.098-.025.213-.037.347-.037.134 0 .274-.012.42-.036.146 0 .316-.013.511-.037h15.77c.121 0 .25.006.383.018.134.012.262.006.383-.018h.073c.22 0 .444.012.676.037.23.024.456.073.675.146.219.048.438.11.657.182.219.073.414.207.584.402.122.17.231.36.329.567.097.207.17.42.219.64.073.316.085.681.036 1.095-.073.512-.34.957-.803 1.334-.462.378-.961.567-1.497.567h-15.623v2.192c.194 0 .486.006.876.018.39.012.833.019 1.332.019h3.34c1.339 0 2.799-.013 4.38-.037h3.542c.121 0 .243.006.365.018.121.012.243.006.365-.018h.985c.268 0 .542.024.822.073.28.049.541.146.784.292.365.22.597.542.694.969.097.426.122.834.073 1.224 0 .487-.2.883-.602 1.187-.402.305-.882.457-1.442.457h-4.38a252.6 252.6 0 01-4.126.037H123.5c-.316 0-.645-.012-.985-.037.024.487.036.78.036.877v.055c0-.06-.006-.158-.018-.292l-.018-.201v1.498c0 .17.006.28.018.329.012.048.03.067.055.055a.286.286 0 00.073-.055c.024-.025.048-.037.073-.037.17.098.444.17.821.22.377.048.81.073 1.296.073h.146c.122 0 .432-.007.93-.019a72.05 72.05 0 011.735-.018h4.234c.657 0 1.23.006 1.716.018.487.012.803.019.949.019h1.898c.195 0 .365-.007.511-.019.146-.012.317-.018.511-.018.39 0 .779.012 1.168.037.39.024.78.097 1.168.219.073.024.14.048.201.073.061.024.128.06.201.11zm-21.464 12.022a7.264 7.264 0 01-1.15-.164 3.902 3.902 0 01-1.004-.365 1.894 1.894 0 01-.712-.676c-.182-.293-.273-.683-.273-1.17 0-.487.158-.913.474-1.279.195-.195.438-.34.73-.438a6.23 6.23 0 01.84-.22 4.09 4.09 0 01.712-.073h.346l20.333.037c.633 0 1.21.006 1.734.018.523.012.991.19 1.405.53.511.463.767.987.767 1.571 0 .366-.11.7-.329 1.005a1.722 1.722 0 01-.876.64 6.467 6.467 0 01-1.515.402c-.523.073-1.04.121-1.551.146a95.222 95.222 0 01-5.257.073 357.554 357.554 0 00-5.037-.037c-.876 0-1.77.006-2.683.019-.913.012-1.789.018-2.628.018h-2.391c-.755 0-1.4-.012-1.935-.037zm43.367-11.29a3.4 3.4 0 01-.894.237 7.799 7.799 0 01-.931.055h-9.528c-.56 0-1.12-.025-1.679-.073-.535-.025-.973-.22-1.314-.585-.34-.366-.535-.853-.584-1.462a12.683 12.683 0 01-.055-.95l-.036-1.279a44.904 44.904 0 01-.019-1.242v-1.243a5.267 5.267 0 010-.877c.025-.316.146-.609.365-.876.341-.415.81-.664 1.406-.75a12.248 12.248 0 011.734-.127h8.25v-2.156h-7.301c-.146 0-.292.006-.438.018a5.267 5.267 0 01-.438.018 2.77 2.77 0 01-.457.037h-.492c-.487 0-.913-.037-1.278-.11-.414-.097-.754-.365-1.022-.804a2.61 2.61 0 01-.329-.968 2.309 2.309 0 01.073-1.005c.122-.414.402-.725.84-.932.438-.207.803-.335 1.095-.383a6.08 6.08 0 011.205-.11h.657c.121 0 .243.006.365.018.122.012.243.018.365.018h7.41c1.266 0 2.245.256 2.939.768.693.511 1.04 1.23 1.04 2.156v3.91c0 .365-.08.816-.237 1.352-.158.536-.432.925-.822 1.169-.316.195-.638.31-.967.347a5.51 5.51 0 01-1.004.018h-8.432v2.412h9.053c.243 0 .486.012.73.037.414.024.76.17 1.04.438s.48.585.603.95c.292.95-.013 1.608-.913 1.973zm6.826 3.58c.73-.024 1.308.037 1.734.183.426.146.76.341 1.004.585.243.243.401.511.474.804.073.292.11.584.11.877v4.238a8.87 8.87 0 010 1.608c-.049.512-.25.926-.602 1.242-.353.317-.81.475-1.37.475-.12 0-.34-.006-.656-.018-.317-.012-.536-.042-.657-.091-.317-.098-.566-.244-.749-.439a2.089 2.089 0 01-.42-.657 2.746 2.746 0 01-.182-.786l-.073-.822c0-.098-.006-.286-.018-.567l-.037-.877a158.5 158.5 0 00-.036-.858 3.304 3.304 0 00-.055-.548c-.073-.025-.274-.05-.602-.073-.329-.025-.943-.037-1.844-.037-.779 0-1.26.006-1.442.018-.182.012-.286.03-.31.055h-13.178l-.036-.036-.238-.074a3.514 3.514 0 01-.529-.219 2.42 2.42 0 01-.566-.402.989.989 0 01-.31-.657c-.122-.926.037-1.657.475-2.193.292-.341.608-.542.949-.603.34-.06.523-.091.547-.091l18.617-.037zm-1.205-8.806a542.49 542.49 0 00-1.898-.128c-.56-.036-.997-.298-1.314-.786-.146-.243-.219-.548-.219-.913 0-.366.024-.682.073-.95.073-.268.207-.493.402-.676.194-.183.535-.335 1.022-.457.097-.024.28-.043.547-.055.268-.012.554-.03.858-.055a25.036 25.036 0 011.406-.073v-3.508a5.913 5.913 0 01-.019-.803c.012-.268.055-.536.128-.804.049-.195.097-.378.146-.548.049-.171.158-.354.329-.549.194-.243.468-.414.821-.511a2.98 2.98 0 011.15-.073c.779.122 1.277.426 1.496.913.146.293.238.652.274 1.078.037.427.055.688.055.786V55.31h-.037a3.25 3.25 0 01-.183.786c-.072.206-.182.42-.328.639a1.8 1.8 0 01-.584.548c-.34.195-.681.292-1.022.292-.413 0-.815-.134-1.204-.402a1.623 1.623 0 01-.62-.73 2.68 2.68 0 01-.293-.805 9.104 9.104 0 01-.11-.803v-3.691h-.876z"></path></g></svg>